<svg xmlns="http://www.w3.org/2000/svg" width="24" height="24" viewBox="0 0 24 24" fill="none" stroke="currentColor" stroke-width="2" stroke-linecap="round" stroke-linejoin="round" class="lucide lucide-brain">
  <path d="M9.5 2A2.5 2.5 0 0 1 12 4.5v15a2.5 2.5 0 0 1-2.5 2.5h-7A2.5 2.5 0 0 1 0 19.5v-15A2.5 2.5 0 0 1 2.5 2h7z" fill="#3b82f6"/>
  <path d="M14.5 2A2.5 2.5 0 0 0 12 4.5v15a2.5 2.5 0 0 0 2.5 2.5h7a2.5 2.5 0 0 0 2.5-2.5v-15A2.5 2.5 0 0 0 21.5 2h-7z" fill="#3b82f6"/>
  <path d="M6 12V8" stroke="#fff"/>
  <path d="M18 12V8" stroke="#fff"/>
  <path d="M12 2v20" stroke="#fff"/>
</svg>